<svg width="393" height="445" viewBox="0 0 393 445" fill="none" xmlns="http://www.w3.org/2000/svg">
<path d="M0 72.1523C153.867 27.5337 240.134 25.7073 394 72.1523V445C236.646 355.678 150.523 359.407 0 445L0 72.1523Z" fill="#ECECEC"/>
<rect x="167.32" y="4.27885" width="57.6311" height="68.4615" rx="12" fill="#ECECEC"/>
<path d="M218.514 17.4953C219.512 13.4364 225.283 13.4364 226.282 17.4953L237.288 62.2221C237.909 64.7431 236 67.1779 233.404 67.1779H211.391C208.795 67.1779 206.887 64.7431 207.507 62.2221L218.514 17.4953Z" fill="#ECECEC"/>
<path d="M166.718 15.7837C167.717 11.7248 173.488 11.7248 174.487 15.7837L185.493 60.5105C186.113 63.0315 184.205 65.4663 181.609 65.4663H159.596C157 65.4663 155.091 63.0315 155.712 60.5105L166.718 15.7837Z" fill="#ECECEC"/>
<rect x="55.8892" y="22.7109" width="57.6311" height="68.4615" rx="12" transform="rotate(-12.9735 55.8892 22.7109)" fill="#ECECEC"/>
<path d="M108.743 24.0969C108.805 19.9174 114.429 18.6219 116.313 22.353L137.08 63.4671C138.25 65.7845 136.938 68.5855 134.408 69.1684L112.956 74.1103C110.427 74.6932 108.02 72.7489 108.059 70.153L108.743 24.0969Z" fill="#ECECEC"/>
<path d="M57.8861 34.0571C57.9482 29.8776 63.5715 28.5821 65.456 32.3131L86.2228 73.4273C87.3933 75.7446 86.0803 78.5457 83.5504 79.1286L62.0993 84.0705C59.5693 84.6534 57.1631 82.7091 57.2017 80.1132L57.8861 34.0571Z" fill="#ECECEC"/>
<rect x="279.364" y="9.32877" width="57.6311" height="68.4615" rx="12" transform="rotate(11.8306 279.364 9.32877)" fill="#ECECEC"/>
<path d="M326.76 32.7601C328.57 28.9922 334.218 30.1753 334.364 34.3528L335.966 80.386C336.057 82.9806 333.69 84.9725 331.149 84.4402L309.603 79.9272C307.062 79.3949 305.694 76.6205 306.818 74.2803L326.76 32.7601Z" fill="#ECECEC"/>
<path d="M276.416 20.466C278.226 16.6981 283.874 17.8812 284.02 22.0586L285.622 68.0919C285.713 70.6865 283.346 72.6784 280.805 72.1461L259.259 67.633C256.718 67.1008 255.35 64.3264 256.474 61.9862L276.416 20.466Z" fill="#ECECEC"/>
<rect x="377.482" y="31.9312" width="57.6311" height="68.4615" rx="12" transform="rotate(18.5541 377.482 31.9312)" fill="#ECECEC"/>
<path d="M373.251 42.6467C375.489 39.1166 380.96 40.9528 380.615 45.1186L376.818 91.0229C376.604 93.6103 374.02 95.3113 371.558 94.4852L350.69 87.4807C348.228 86.6545 347.194 83.739 348.584 81.5465L373.251 42.6467Z" fill="#ECECEC"/>
<rect width="57.6311" height="68.4615" rx="12" transform="matrix(-0.939407 0.342805 0.342805 0.939407 15.6826 37.2712)" fill="#ECECEC"/>
<path d="M-27.8784 67.2363C-30.2081 63.7657 -35.6291 65.7439 -35.1759 69.8993L-30.183 115.689C-29.9016 118.27 -27.2742 119.903 -24.8354 119.013L-4.15613 111.467C-1.71725 110.577 -0.75925 107.635 -2.20624 105.48L-27.8784 67.2363Z" fill="#ECECEC"/>
<path d="M20.1914 47.8729C17.8617 44.4023 12.4408 46.3805 12.8939 50.5359L17.8868 96.3256C18.1682 98.9065 20.7956 100.54 23.2345 99.6496L43.9137 92.1034C46.3526 91.2135 47.3106 88.272 45.8636 86.1164L20.1914 47.8729Z" fill="#ECECEC"/>
</svg>
